<svg id="Layer_2" data-name="Layer 2" xmlns="http://www.w3.org/2000/svg" viewBox="0 0 1024 768"><defs><style>.cls-1{fill:none;stroke:#000;stroke-miterlimit:10;}</style></defs><path class="cls-1" d="M488.66346,646.65814c-54.07372-1.5765-364.10072,7.24868-408.31534-12.83343L51.26583,606.18348,28,568.67037l4.65317-34.55154L75.695,500.55447l55.838-7.8975h60.49116c61.78779-2.11468,192.66616-4.96007,253.59725-3.94754l110.513-.00121,51.18483-14.8078L630.585,444.28481l19.776-40.47467-4.65316-40.47466-34.89875-26.65405c-92.43658-14.83033-238.30177-5.44685-332.70177-7.90007l-111.6756.00257-58.16458-10.85905c-14.232-11.29166-43.82783-34.48565-58.16458-45.4106L33.81646,224.14211l26.87689-39.0509L111.757,162.93652l88.41016-10.85906,79.10383,3.94875,45.36837-3.94875,81.43041-27.64123,50.02153-32.57717L494.47991,81l40.71521,12.83343,44.20508,20.73093L624.76857,144.18l58.16458,7.89749h86.08357l79.10383,6.91031,63.981,10.85906,48.85825,25.66686,10.46962,40.47467c-1.90839,69.75633,4.8517,276.40331-4.65316,346.50263l-39.55192,41.46185-43.04178,22.7053Z"/></svg>