<svg id="Layer_2" data-name="Layer 2" xmlns="http://www.w3.org/2000/svg" viewBox="0 0 812.01427 574.03004"><defs><style>.cls-1{fill:none;stroke:#000;stroke-miterlimit:10;}</style></defs><polygon class="cls-1" points="396.514 573.53 106.514 573.53 45.514 560.53 20.514 532.53 0.514 494.53 4.514 459.53 41.514 425.53 89.514 417.53 141.514 417.53 268.514 413.53 359.514 413.53 454.514 413.53 498.514 398.53 518.514 368.53 535.514 327.53 531.514 286.53 501.514 259.53 447.514 251.53 350.514 251.53 215.514 251.53 119.514 251.53 69.514 240.53 41.514 214.53 19.514 194.53 5.514 145.53 28.618 105.972 72.514 83.53 148.514 72.53 216.514 76.53 255.514 72.53 325.514 44.53 368.514 11.53 401.514 0.53 436.514 13.53 474.514 34.53 513.514 64.53 563.514 72.53 637.514 72.53 705.514 79.53 760.514 90.53 802.514 116.53 811.514 157.53 811.514 216.53 811.514 464.53 807.514 508.53 773.514 550.53 736.514 573.53 665.514 573.53 503.514 573.53 396.514 573.53"/></svg>