<svg id="Layer_2" data-name="Layer 2" xmlns="http://www.w3.org/2000/svg" viewBox="0 0 766 453"><path d="M686.87244,159l53.73809,13.9321,71.694,42.81726,56.766,80.6676,18.91907,80.65479L883.023,432.69864,821.25513,543.283l-99.55072,60.726L534,610H326.14758L253.4191,588.08185l-48.73516-30.83246L150.889,487.51523,124.018,411.87814l8.9591-86.60458,36.83553-77.65327,70.67622-60.72184L335.14426,159H686.87244M687,158H335l-95,28-71,61-37,78-9,87,27,76,54,70,49,31,73,22H534l188-6,100-61,62-111,5-56-19-81-57-81-72-43-54-14Z" transform="translate(-123 -158)"/></svg>